<?xml version="1.0" encoding="utf-8"?>
<svg xmlns="http://www.w3.org/2000/svg" viewBox="150 0 930 820" preserveAspectRatio="xMidYMid meet">
  <defs>
    <filter id="roadGlow" x="-30%" y="-30%" width="160%" height="160%"><feGaussianBlur stdDeviation="2.8"/></filter>
    <style>
      .land{fill:none;stroke:#19bfff;stroke-width:1.2;stroke-opacity:.07;vector-effect:non-scaling-stroke}
      .roads{fill:none;stroke:#19bfff;stroke-width:1.15;stroke-opacity:.13;vector-effect:non-scaling-stroke;stroke-linecap:round;stroke-linejoin:round}
      .roadGlow{fill:none;stroke:#19bfff;stroke-width:3;stroke-opacity:.055;filter:url(#roadGlow);vector-effect:non-scaling-stroke}
    </style>
  </defs>
  <g class="land">
    <path d="M678.28,328.74v3.98l-11.64,1.6l-4.53,5.57l-5.17,0.8l-1.29,-1.59l0.65,-3.98l2.59,-2.39h5.17l6.47,-3.98H678.28zM583.88,238.85l3.23,5.57l3.23,1.58l1.29,4.78l3.24,2.39v7.96l4.52,0.8l4.53,4.76l0.65,6.37l-9.7,6.37h-12.29l-3.24,3.98h-2.58l-1.29,2.38l1.29,3.18l-9.05,6.37l-3.88,5.57l-18.75,10.33l-1.94,3.19l0.65,6.36l3.88,8.75l3.24,2.39l31.68,-3.99l10.99,-3.18l1.94,-2.38l10.35,-3.19l4.53,-3.18l2.58,2.39l-0.65,3.18l3.24,4.77h4.52l0.65,-2.39l5.82,-3.18l4.52,5.57l6.47,-0.8l4.53,3.18h2.59l1.94,-3.18l1.29,1.6h5.82v3.18l-4.53,3.98l5.17,5.57l-5.17,7.95l2.58,1.6l0.65,4.76l-1.94,2.39h-5.82l-3.88,-3.18l-3.88,0.79v3.19l3.88,1.58l-1.29,5.57l-3.88,4.77l-2.59,7.95l-5.17,1.6l-1.29,3.98l-4.53,2.38l-0.64,6.37l5.17,0.8l5.82,-3.19h3.88l1.29,-3.18l3.88,-0.8l1.94,-2.38l10.35,-2.39l1.94,-3.98l4.53,1.6l-0.65,2.38h7.76l0.65,-2.38l3.88,2.38l1.29,-3.18l5.18,1.6l1.29,-0.8v-6.37l3.88,-1.58h8.41l1.29,-2.39l4.52,-0.79l1.3,-7.16l7.12,-5.57l5.82,-1.58l5.17,-3.98h12.28l0.65,3.98l-9.05,-0.8v7.15l-4.52,7.96l1.29,8.75l-5.82,8.75l-2.59,10.33h1.94l1.29,-5.57l3.88,-5.56l1.94,-1.59h5.17l5.17,-6.36l2.59,-0.8l3.88,-9.54l3.24,-0.8l1.94,2.39l5.18,-0.8l9.06,7.15h8.4l2.59,4.77l3.87,2.38l-1.94,4.77l5.18,3.19l2.59,7.95l5.82,-1.59l-1.94,-1.58l0.65,-7.16l5.17,-0.8l3.88,7.96v12.72l2.59,0.79l1.29,-3.97l2.59,-0.79l1.3,7.15l3.88,4.77l23.28,4.77l0.64,-2.39l10.35,-4.77l5.81,3.98l9.7,2.39l1.3,1.58l-0.65,5.57l6.47,2.39l1.29,3.18h5.17l3.23,2.38l-1.78,7.31l-7.08,4.35l-3.19,6.09l5.31,1.74l1.77,17.85l-2.83,3.92h-14.87l-7.79,10.01l-11.68,0.44l-6.37,-4.79l-6.37,-2.18l-5.31,0.44l-1.77,6.09h-1.77l-9.91,-10.88l-12.74,-1.31l-7.43,4.79l1.06,15.67l-1.42,10.88l-2.12,4.35l-10.97,1.31l-10.27,-3.92l-2.12,0.87l-8.14,10.44l-0.35,10.44l-2.48,0.44l-14.16,-12.18l-26.2,2.17l-3.54,2.18l-13.1,23.06l-0.35,6.09l2.48,2.61l1.42,6.53l7.44,9.14l-2.12,20.01l3.9,8.27l0.35,13.48l4.6,6.09v3.05l-14.16,12.61l-5.66,3.04l-4.6,0.87l-5.66,-3.91l-10.27,0.44l-2.83,10l-4.6,6.52l-2.48,10.44l-10.62,11.74l-0.35,6.96l-2.25,2.81l-7.75,-0.8l-3.23,-3.17l-7.76,0.8l-9.7,-7.95l-3.24,-6.35l-9.7,-2.39l-7.12,-8.74l-14.22,-9.52l-4.53,-10.33l-3.88,-3.17l-1.29,-4.77l-2.58,-2.39l-6.47,-0.78l-4.53,-3.19l1.29,-1.58h-1.94v-1.59l4.53,-4.77l-15.52,-0.8l-12.93,-8.74l-1.94,-6.35l-5.82,-4.77l-6.47,-8.74l2.58,-15.89l-6.47,-19.87l-7.11,-4.77l-5.82,-8.74v-5.56l3.88,-3.97l0.65,-4.77l-5.17,-7.94v-5.56l13.58,3.18l15.52,-0.8l-0.65,-3.18l-3.88,-0.8l-1.94,-4.77l1.29,-1.59l-0.65,-3.18l-5.82,-3.18l-0.65,-3.97l-5.17,-0.8l-1.94,-10.34l1.94,-14.3l2.59,-3.19h6.46l4.52,0.8l5.82,7.95h2.59l0.65,-2.38l1.94,0.8l-1.29,-5.57l1.29,-8.74l-9.7,0.8l-1.94,-7.16l0.65,-2.38l13.58,0.8l1.29,-2.39h-4.52l-1.29,-3.18v-4.77l4.53,-2.38l-1.29,-3.19l-10.35,1.59l-4.53,-4.77l1.29,-1.59l-1.29,-1.58l-5.82,-2.39l-12.29,-1.58l-3.88,-8.75l1.29,-7.95l6.46,-3.97h9.7v-8.75l4.52,-3.19v-6.36l7.76,-4.77v-2.39h-4.52l-2.58,-2.38l1.29,-6.37l-3.23,-5.56h3.88l0.65,-2.39l-8.4,-3.98l-1.29,-3.98l1.29,-2.38h3.88l1.29,-3.99l-2.59,-3.98l-1.29,-7.95l-16.81,-0.8l-5.82,3.98h-7.12l-7.75,-3.98l-3.24,-6.36l3.88,-3.98l1.29,-7.17l3.24,-6.36l4.52,-3.98h7.12l6.46,-11.94h3.24l0.64,1.6l2.59,-0.8l1.29,-5.56l-14.22,-4.77l1.94,-10.35l3.88,-0.8l-0.65,3.98l-1.94,1.6l2.58,3.18l11.64,-1.58l7.76,3.98h3.88l1.94,-2.39l4.53,-0.8l9.05,3.98l-1.94,-3.98l1.29,-2.38h7.76l4.52,3.98l1.94,-13.53h7.12l1.94,0.8l1.29,4.78h5.81l2.59,-7.17l10.35,0.8l0.65,-1.58l-6.46,-3.19l-0.65,-7.95l3.24,-3.18l8.4,3.18l-0.65,-5.57z"/>
  </g>
  <g class="roadGlow">
    <path d="M610 335 C665 350 710 382 752 425 C790 464 815 505 846 548 C875 589 909 620 950 645 C981 664 1005 679 1032 701"/>
    <path d="M575 390 C640 405 688 430 733 463 C775 494 807 525 841 555 C876 585 915 608 965 625"/>
    <path d="M650 295 C694 332 723 363 752 399 C784 438 812 475 849 507 C887 540 923 559 962 573"/>
    <path d="M706 570 C747 546 785 533 821 530 C859 527 894 538 928 557 C956 572 980 593 1004 615"/>
    <path d="M790 476 C778 510 773 545 780 579 C788 617 806 648 832 676 C855 700 884 719 919 734"/>
    <path d="M858 447 C839 468 824 491 818 518 C810 552 816 584 832 611 C850 641 873 662 903 680"/>
    <path d="M735 420 C704 449 684 479 677 514 C671 547 676 577 690 603 C706 632 729 655 759 674"/>
  </g>
  <g class="roads">
    <path d="M610 335 C665 350 710 382 752 425 C790 464 815 505 846 548 C875 589 909 620 950 645 C981 664 1005 679 1032 701"/>
    <path d="M575 390 C640 405 688 430 733 463 C775 494 807 525 841 555 C876 585 915 608 965 625"/>
    <path d="M650 295 C694 332 723 363 752 399 C784 438 812 475 849 507 C887 540 923 559 962 573"/>
    <path d="M706 570 C747 546 785 533 821 530 C859 527 894 538 928 557 C956 572 980 593 1004 615"/>
    <path d="M790 476 C778 510 773 545 780 579 C788 617 806 648 832 676 C855 700 884 719 919 734"/>
    <path d="M858 447 C839 468 824 491 818 518 C810 552 816 584 832 611 C850 641 873 662 903 680"/>
    <path d="M735 420 C704 449 684 479 677 514 C671 547 676 577 690 603 C706 632 729 655 759 674"/>
  </g>
</svg>